<?xml version="1.0" standalone="no"?>
<!DOCTYPE svg PUBLIC "-//W3C//DTD SVG 20010904//EN"
 "http://www.w3.org/TR/2001/REC-SVG-20010904/DTD/svg10.dtd">
<svg version="1.0" xmlns="http://www.w3.org/2000/svg"
 width="500.000000pt" height="500.000000pt" viewBox="0 0 500.000000 500.000000"
 preserveAspectRatio="xMidYMid meet">
<metadata>
Created by potrace 1.11, written by Peter Selinger 2001-2013
</metadata>
<g transform="translate(0.000000,500.000000) scale(0.100000,-0.100000)"
fill="#000000" stroke="none">
<path d="M2285 3958 c-132 -76 -424 -246 -650 -375 -225 -130 -420 -245 -432
-256 l-23 -20 0 -712 c0 -392 3 -747 7 -789 6 -76 7 -78 42 -100 146 -92 1301
-751 1321 -753 18 -3 202 98 685 377 363 209 668 390 678 401 16 20 17 73 17
798 l0 778 -22 20 c-13 11 -317 190 -677 397 -433 249 -662 376 -680 375 -14
0 -132 -62 -266 -141z m550 -113 c148 -85 272 -158 277 -163 4 -4 -16 -21 -45
-38 -389 -230 -506 -294 -524 -287 -51 21 -552 318 -545 325 15 14 547 318
558 318 6 0 131 -70 279 -155z m-592 -422 l267 -155 0 -329 c0 -181 -2 -329
-5 -329 -7 0 -487 274 -537 306 l-38 24 0 330 0 331 23 -12 c12 -7 142 -81
290 -166z m1317 6 l280 -162 0 -329 c0 -260 -3 -329 -12 -325 -33 12 -554 320
-560 330 -12 18 -10 647 2 647 5 0 136 -73 290 -161z m-1384 -739 c153 -89
279 -162 281 -164 1 -1 -123 -76 -277 -165 -177 -103 -286 -161 -296 -157 -9
3 -139 77 -289 163 l-274 157 122 72 c67 39 192 112 277 162 85 50 160 91 166
91 6 1 136 -71 290 -159z m1335 -2 c153 -89 278 -163 276 -164 -18 -18 -563
-324 -572 -322 -16 4 -565 322 -561 325 12 12 554 322 564 322 8 1 139 -72
293 -161z m-1726 -537 l60 -36 3 -329 c2 -310 1 -328 -15 -322 -28 11 -526
298 -545 314 -17 14 -18 43 -18 343 l0 328 228 -131 c125 -72 254 -148 287
-167z m1106 128 c200 -116 281 -168 284 -183 3 -12 4 -161 3 -333 l-3 -311
-287 166 -288 165 0 329 c0 180 3 328 6 328 4 0 132 -73 285 -161z m-49 -741
c153 -88 275 -165 271 -169 -10 -9 -509 -298 -540 -312 -19 -8 -59 12 -303
153 -155 89 -279 164 -277 167 10 9 552 322 561 322 4 1 134 -72 288 -161z"/>
</g>
</svg>
